<mxfile host="app.diagrams.net" modified="2024-07-03T08:38:36.208Z" agent="Mozilla/5.0 (Windows NT 10.0; Win64; x64) AppleWebKit/537.36 (KHTML, like Gecko) Chrome/126.0.0.0 Safari/537.36" version="24.5.4" etag="qK81cT32cWvrAB8_goU6" type="github">
  <diagram name="第 1 页" id="hF9Y2g9nfBrXE7j43j9L">
    <mxGraphModel>
      <root>
        <mxCell id="0" />
        <mxCell id="1" parent="0" />
      </root>
    </mxGraphModel>
  </diagram>
</mxfile>
